<?xml version="1.0" encoding="UTF-8"?>
<svg version="1.1" xmlns="http://www.w3.org/2000/svg" width="300" height="300">
<path d="M0 0 C15.88174716 -0.07020163 31.76345215 -0.12304266 47.64531612 -0.15543652 C55.02018877 -0.17087993 62.39496478 -0.19192087 69.76977539 -0.22631836 C76.20056764 -0.25629838 82.63128987 -0.27559335 89.06215006 -0.28226548 C92.46463191 -0.28616325 95.86691354 -0.29527018 99.26933098 -0.31719017 C103.07542588 -0.33901997 106.88110826 -0.34196451 110.68725586 -0.34057617 C111.80503922 -0.351362 112.92282257 -0.36214783 114.07447815 -0.3732605 C127.08588232 -0.32202563 141.12080177 4.79076783 150.5625 14 C151.73402615 15.31081588 152.88287869 16.64252007 154 18 C154.45503906 18.50660156 154.91007813 19.01320313 155.37890625 19.53515625 C164.87432668 31.17374367 167.45920795 47.49874256 166 62 C162.71671588 78.10372686 151.22267591 90.88822012 138 100 C121.91568908 109.98986499 100.50117168 108.65572464 82.41387939 108.73822021 C78.97368774 108.75809619 75.53375649 108.79982084 72.09375 108.83984375 C65.39567106 108.91623241 58.69871447 108.95736019 52 109 C47.05 119.56 42.1 130.12 37 141 C52.84 141.33 68.68 141.66 85 142 C79.89305213 152.21389574 74.74293222 162.29079271 69.1875 172.25 C68.4931381 173.50070011 67.79913289 174.75159831 67.10546875 176.00268555 C65.7257447 178.49063257 64.34461396 180.97778968 62.96240234 183.46435547 C60.12538336 188.57147612 57.3123634 193.69177316 54.5 198.8125 C53.015 201.514375 51.53 204.21625 50 207 C61.22 207 72.44 207 84 207 C82.44581272 210.10837456 81.56221321 211.69741161 79.3046875 214.07421875 C78.76215332 214.65026855 78.21961914 215.22631836 77.66064453 215.81982422 C77.07138184 216.43615723 76.48211914 217.05249023 75.875 217.6875 C75.25608887 218.34250488 74.63717773 218.99750977 73.99951172 219.67236328 C72.67795131 221.07059336 71.35448969 222.46702852 70.02929688 223.86181641 C67.37922487 226.65408429 64.74352248 229.45970091 62.10766602 232.26538086 C60.10880488 234.39223212 58.10742041 236.51668282 56.10546875 238.640625 C53.29173651 241.62662656 50.48230203 244.61659468 47.67578125 247.609375 C46.96599121 248.36557129 46.25620117 249.12176758 45.52490234 249.90087891 C44.17929326 251.33462145 42.83450367 252.76913378 41.49072266 254.20458984 C38.45567485 257.43621427 35.39228425 260.62618757 32.24609375 263.75 C29.93236423 266.04781309 27.72381738 268.37640788 25.625 270.875 C22.33379587 274.69751959 18.80280874 278.21938562 15.20703125 281.75390625 C12.51016904 284.49850053 10.04109502 287.3942172 7.60546875 290.37109375 C5.86215733 292.13985497 4.22847203 292.94633741 2 294 C3.35322397 286.14546365 4.98569243 278.38464033 6.78515625 270.62109375 C7.04630722 269.48720718 7.30745819 268.35332062 7.57652283 267.18507385 C8.12405984 264.81083682 8.67286846 262.43689271 9.22290039 260.06323242 C10.06715915 256.41737989 10.90589448 252.77028595 11.74414062 249.12304688 C12.27831761 246.80982001 12.81281134 244.49666627 13.34765625 242.18359375 C13.59870621 241.0909874 13.84975616 239.99838104 14.1084137 238.87266541 C14.45899086 237.36453026 14.45899086 237.36453026 14.81665039 235.82592773 C15.02157608 234.9397728 15.22650177 234.05361786 15.43763733 233.14060974 C16 231 16 231 17 229 C5.45 229 -6.1 229 -18 229 C-16.11189091 221.44756365 -14.18816445 214.04834454 -11.86328125 206.640625 C-11.61074585 205.82706543 -11.35821045 205.01350586 -11.09802246 204.17529297 C-10.1731338 201.19906832 -9.24250335 198.22463039 -8.3125 195.25 C-5.1878125 185.22625 -5.1878125 185.22625 -2 175 C-26.255 174.505 -26.255 174.505 -51 174 C-48.52792172 164.1116869 -46.02407571 154.3653097 -43.078125 144.62890625 C-42.50422545 142.71451475 -41.93032845 140.80012248 -41.35651875 138.88570404 C-40.7455937 136.84982132 -40.13292934 134.81446963 -39.51974487 132.77926636 C-37.53680113 126.19697529 -35.56537907 119.61122794 -33.59274101 113.02584267 C-32.88731077 110.67121152 -32.1814601 108.31670665 -31.4756012 105.96220398 C-25.85372692 87.2022182 -20.29663864 68.42302239 -14.73857117 49.64405441 C-13.16718612 44.33486427 -11.59548781 39.02576685 -10.02369404 33.71669769 C-8.84488085 29.73500271 -7.66624844 25.75325457 -6.48820496 21.77133179 C-6.06757942 20.35007633 -5.64695073 18.9288218 -5.22631836 17.50756836 C-4.86694687 16.2929039 -4.50757538 15.07823944 -4.13731384 13.82676697 C-2.76677607 9.21526178 -1.38439376 4.60736135 0 0 Z M45 35 C45.25817019 38.48529763 46.24021172 39.21465728 48.9375 41.625 C49.948125 42.40875 50.95875 43.1925 52 44 C52.66 44.66 53.32 45.32 54 46 C52.948125 45.896875 51.89625 45.79375 50.8125 45.6875 C41.72574879 45.6875 32.89733043 50.38589383 26 56 C29.42077478 57.14025826 30.54562247 56.73185965 34 56 C43.16973478 55.27388978 50.52101411 55.2104297 58 61 C58.33 61.33 58.66 61.66 59 62 C57.7625 62.391875 56.525 62.78375 55.25 63.1875 C51.27906081 64.67748072 49.25209384 66.30656611 47 70 C46.22166466 72.18214568 46.22166466 72.18214568 46 74 C46.99 73.34 47.98 72.68 49 72 C57.03551385 70.99556077 64.40806179 72.15741737 72.1875 74 C84.82630984 76.92944074 100.32429282 79.01842138 112 72 C115.88298367 68.82220187 118.05615647 64.90798634 119 60 C119.22349078 54.81673299 118.78431857 50.37090502 115.625 46.125 C109.96311572 40.31231493 100.54208478 38.11059735 92.64111328 37.91821289 C91.38024902 37.9361792 90.11938477 37.95414551 88.8203125 37.97265625 C87.40104432 37.98532662 85.98177333 37.99768573 84.5625 38.00976562 C82.36025876 38.03428352 80.15817124 38.06198847 77.95605469 38.09594727 C55.26876088 38.42292029 55.26876088 38.42292029 45 35 Z " fill="#F40016" transform="translate(90,4)"/>
<path d="M0 0 C-1.30324219 0.47179688 -1.30324219 0.47179688 -2.6328125 0.953125 C-11.26520435 4.14166119 -11.26520435 4.14166119 -19 9 C-17.99710937 8.84273437 -16.99421875 8.68546875 -15.9609375 8.5234375 C-5.66871881 7.16332182 3.41917624 6.48880582 12 13 C11.34 13.33 10.68 13.66 10 14 C8.906875 13.360625 7.81375 12.72125 6.6875 12.0625 C-2.59831925 7.22648564 -13.50032844 10.12442375 -23 13 C-21.05642971 6.96470279 -17.35051043 4.9781948 -12 2 C-7.82484667 -0.02542465 -4.57554134 -1.46457725 0 0 Z " fill="#000000" transform="translate(136,51)"/>
</svg>
